<svg width="25.000000" height="19.000000" viewBox="0 0 25 19" fill="none" xmlns="http://www.w3.org/2000/svg" xmlns:xlink="http://www.w3.org/1999/xlink">
	<desc>
			Created with Pixso.
	</desc>
	<defs/>
	<path id="Vector" d="M9.26 12.77C9.26 13.85 8.69 15.62 7.36 15.62C6.03 15.62 5.46 13.85 5.46 12.77C5.46 11.69 6.03 9.92 7.36 9.92C8.69 9.92 9.26 11.69 9.26 12.77ZM24.45 10.16C24.45 11.81 24.28 13.56 23.54 15.07C21.58 19.04 16.2 18.94 12.34 18.94C8.42 18.94 2.72 19.08 0.68 15.07C-0.07 13.57 -0.36 11.81 -0.36 10.16C-0.36 7.99 0.36 5.94 1.78 4.28C1.51 3.46 1.38 2.6 1.38 1.75C1.38 0.64 1.64 0.08 2.14 -0.93C4.48 -0.93 5.98 -0.46 7.76 0.93C9.26 0.58 10.8 0.42 12.35 0.42C13.74 0.42 15.15 0.57 16.5 0.89C18.26 -0.49 19.76 -0.93 22.08 -0.93C22.58 0.08 22.83 0.64 22.83 1.75C22.83 2.6 22.7 3.44 22.43 4.25C23.85 5.92 24.45 7.99 24.45 10.16ZM21.12 12.77C21.12 10.5 19.74 8.49 17.33 8.49C16.35 8.49 15.41 8.67 14.43 8.8C13.66 8.92 12.89 8.97 12.1 8.97C11.31 8.97 10.54 8.92 9.77 8.8C8.8 8.67 7.86 8.49 6.87 8.49C4.45 8.49 3.07 10.5 3.07 12.77C3.07 17.31 7.23 18.01 10.85 18.01L13.34 18.01C16.97 18.01 21.12 17.32 21.12 12.77ZM16.85 9.92C15.52 9.92 14.96 11.69 14.96 12.77C14.96 13.85 15.52 15.62 16.85 15.62C18.19 15.62 18.75 13.85 18.75 12.77C18.75 11.69 18.19 9.92 16.85 9.92Z" fill="#BABABA" fill-opacity="1.000000" fill-rule="nonzero"/>
</svg>
