<svg width="27.000000" height="19.000000" viewBox="0 0 27 19" fill="none" xmlns="http://www.w3.org/2000/svg" xmlns:xlink="http://www.w3.org/1999/xlink">
	<desc>
			Created with Pixso.
	</desc>
	<defs/>
	<path id="GT" d="M21.32 3.43Q24.07 3.45 26.99 3.54L26.99 -0.36L11.03 -0.36L11.03 3.54Q13.91 3.45 16.68 3.43L16.68 13.13L21.32 13.13L21.32 3.43ZM14.69 10.49L6.75 10.49L6.75 13.5L10.38 13.5Q10.18 13.72 9.95 13.89Q9.55 14.19 9.04 14.34C8.52 14.5 7.98 14.58 7.42 14.58Q5.49 14.58 4.54 13.67Q4.28 13.41 4.09 13.11Q3.61 12.34 3.61 11.27C3.61 10.36 3.9 9.59 4.48 8.97C5.07 8.34 5.95 8.02 7.14 8.02Q8 8.02 8.79 8.26Q8.99 8.32 9.19 8.39C9.83 8.63 10.39 8.99 10.88 9.47L11.34 9.21Q13.78 7.93 14.61 7.5Q13.77 6.43 12.69 5.72Q12.12 5.35 11.49 5.08C10.28 4.56 8.87 4.3 7.27 4.3Q3.07 4.3 1.08 6.24Q0.66 6.65 0.32 7.13Q-0.91 8.88 -0.91 11.5Q-0.91 13.58 -0.09 15.14Q0.48 16.21 1.35 16.94Q1.74 17.28 2.2 17.54C3.18 18.1 4.29 18.37 5.54 18.37C6.92 18.37 8.08 18.09 9.04 17.52C9.99 16.95 10.65 16.08 11.03 14.9L11.42 18.19L14.69 18.19L14.69 10.49Z" fill="#BABABA" fill-opacity="1.000000" fill-rule="evenodd"/>
</svg>
