<svg width="30.000000" height="24.000000" viewBox="0 0 30 24" fill="none" xmlns="http://www.w3.org/2000/svg" xmlns:xlink="http://www.w3.org/1999/xlink">
	<desc>
			Created with Pixso.
	</desc>
	<defs>
		<clipPath id="clip12_129">
			<rect id="Frame 33" width="30.000000" height="24.000000" transform="translate(-0.952393 -0.988281)" fill="white" fill-opacity="0"/>
		</clipPath>
	</defs>
	<rect id="Frame 33" width="30.000000" height="24.000000" transform="translate(-0.952393 -0.988281)" fill="#FFFFFF" fill-opacity="0"/>
	<g clip-path="url(#clip12_129)">
		<path id="GT" d="M22.32 5.43Q25.07 5.45 27.99 5.54L27.99 1.64L12.03 1.64L12.03 5.54Q14.91 5.45 17.68 5.43L17.68 15.13L22.32 15.13L22.32 5.43ZM15.69 12.49L7.75 12.49L7.75 15.5L11.38 15.5Q11.18 15.72 10.95 15.89Q10.55 16.19 10.04 16.34C9.52 16.5 8.98 16.58 8.42 16.58Q6.49 16.58 5.54 15.67Q5.28 15.41 5.09 15.11Q4.61 14.34 4.61 13.27C4.61 12.36 4.9 11.59 5.48 10.97C6.07 10.34 6.95 10.02 8.14 10.02Q9 10.02 9.79 10.26Q9.99 10.32 10.19 10.39C10.83 10.63 11.39 10.99 11.88 11.47L12.34 11.21Q14.78 9.93 15.61 9.5Q14.77 8.43 13.69 7.72Q13.12 7.35 12.49 7.08C11.28 6.56 9.87 6.3 8.27 6.3Q4.07 6.3 2.08 8.24Q1.66 8.65 1.32 9.13Q0.09 10.88 0.09 13.5Q0.09 15.58 0.91 17.14Q1.48 18.21 2.35 18.94Q2.74 19.28 3.2 19.54C4.18 20.1 5.29 20.37 6.54 20.37C7.92 20.37 9.08 20.09 10.04 19.52C10.99 18.95 11.65 18.08 12.03 16.9L12.42 20.19L15.69 20.19L15.69 12.49Z" fill="#BABABA" fill-opacity="1.000000" fill-rule="evenodd"/>
	</g>
</svg>
