<svg width="25.000000" height="17.000000" viewBox="0 0 25 17" fill="none" xmlns="http://www.w3.org/2000/svg" xmlns:xlink="http://www.w3.org/1999/xlink">
	<desc>
			Created with Pixso.
	</desc>
	<defs/>
	<path id="youtube" d="M21.77 -0.31C22.87 0.01 23.65 0.79 23.97 1.89C24.59 3.93 24.59 8.01 24.59 8.01C24.59 8.01 24.59 12.09 24.12 14.13C23.81 15.22 23.02 16.01 21.93 16.32C19.89 16.79 12.04 16.79 12.04 16.79C12.04 16.79 4.04 16.79 2.16 16.32C1.06 16.01 0.28 15.22 -0.04 14.13C-0.51 12.09 -0.51 8.01 -0.51 8.01C-0.51 8.01 -0.51 3.93 -0.19 1.89C0.12 0.79 0.9 0.01 2 -0.31C4.04 -0.78 11.89 -0.78 11.89 -0.78C11.89 -0.78 19.89 -0.78 21.77 -0.31ZM10.13 4.58L15.51 7.66C15.78 7.81 15.78 8.2 15.51 8.35L10.13 11.43C9.86 11.58 9.53 11.39 9.53 11.08L9.53 4.93C9.53 4.62 9.86 4.43 10.13 4.58Z" fill="#BABABA" fill-opacity="1.000000" fill-rule="evenodd"/>
</svg>
