<svg width="24.000000" height="30.000000" viewBox="0 0 24 30" fill="none" xmlns="http://www.w3.org/2000/svg" xmlns:xlink="http://www.w3.org/1999/xlink">
	<desc>
			Created with Pixso.
	</desc>
	<defs/>
	<path d="M23.95 -0.33C23.92 -0.41 23.86 -0.48 23.78 -0.53C23.71 -0.58 23.62 -0.61 23.53 -0.61L10.49 -0.61C10.42 -0.6 10.34 -0.59 10.27 -0.55C10.2 -0.51 10.14 -0.46 10.1 -0.39L0.08 15.55C0.03 15.62 0 15.7 0 15.78C-0.01 15.87 0.01 15.95 0.05 16.03C0.09 16.1 0.15 16.16 0.22 16.21C0.29 16.25 0.38 16.27 0.46 16.27L7.64 16.27L1.3 28.69C1.27 28.77 1.25 28.85 1.25 28.93C1.26 29.01 1.28 29.09 1.32 29.16C1.37 29.23 1.43 29.29 1.5 29.33C1.57 29.37 1.65 29.39 1.73 29.39L4.54 29.39C4.61 29.4 4.67 29.38 4.73 29.36C4.79 29.33 4.84 29.29 4.89 29.25L21.33 11.44C21.4 11.38 21.44 11.29 21.46 11.2C21.48 11.11 21.47 11.01 21.43 10.93C21.39 10.84 21.33 10.77 21.25 10.72C21.17 10.67 21.08 10.64 20.99 10.64L14.68 10.64L23.88 0.16C23.94 0.1 23.98 0.01 23.99 -0.07C24 -0.16 23.99 -0.25 23.95 -0.33Z" fill="#2B788B" fill-opacity="1.000000" fill-rule="nonzero"/>
</svg>
