<svg width="29" height="24" viewBox="0 0 29 24" fill="none" xmlns="http://www.w3.org/2000/svg">
<path d="M5.21427 19.6667V14.6454L10.6276 18.1827C11.7932 18.9442 13.1553 19.3498 14.5476 19.3498C15.9399 19.3498 17.302 18.9442 18.4676 18.1827L23.8809 14.6454V19.6667C23.8809 19.8831 23.8108 20.0936 23.6809 20.2667L23.6796 20.268L23.6783 20.2707L23.6743 20.276L23.6623 20.2893L23.6463 20.3107L23.6289 20.3333L23.5143 20.468C23.3798 20.6207 23.2387 20.7675 23.0916 20.908C22.7223 21.264 22.1716 21.7267 21.4249 22.1853C19.9303 23.1053 17.6663 24 14.5476 24C11.4289 24 9.16627 23.1067 7.66894 22.1853C7.06978 21.8202 6.51109 21.3925 6.00227 20.9093C5.80042 20.7146 5.6103 20.508 5.43294 20.2907L5.42094 20.2773L5.41694 20.2707V20.268C5.28632 20.0947 5.21523 19.8837 5.21427 19.6667ZM28.0943 9.50402L17.3743 16.508C16.5339 17.0573 15.5516 17.3498 14.5476 17.3498C13.5436 17.3498 12.5614 17.0573 11.7209 16.508L2.54761 10.5147V17.6667C2.54761 17.9319 2.44225 18.1863 2.25471 18.3738C2.06718 18.5613 1.81282 18.6667 1.54761 18.6667C1.28239 18.6667 1.02804 18.5613 0.840501 18.3738C0.652964 18.1863 0.547607 17.9319 0.547607 17.6667V9.33335C0.547607 9.21602 0.567607 9.10402 0.604941 9.00002C0.529851 8.78749 0.528764 8.55583 0.601854 8.34261C0.674945 8.12939 0.817926 7.94711 1.00761 7.82535L11.7596 0.932016C12.5917 0.398702 13.5593 0.115234 14.5476 0.115234C15.5359 0.115234 16.5035 0.398702 17.3356 0.932016L28.0876 7.82535C28.228 7.91551 28.3437 8.03937 28.424 8.18566C28.5043 8.33194 28.5467 8.496 28.5473 8.66287C28.548 8.82974 28.5069 8.99413 28.4278 9.14105C28.3486 9.28797 28.234 9.41275 28.0943 9.50402Z" fill="black"/>
</svg>
